- 
http://www.Speed.Cd      fast  and The Hottest Private Tracker on the net

   signup is open now

Please Seed back to make the speed Faster!!!

------------------nfo--------------------------
-ON THE INSIDE 2011 DVDRIP XVID - DIDyourSISTER

Format                           : AVI
Format/Info                      : Audio Video Interleave
File size                        : 902 MiB
Duration                         : 1h 26mn
Overall bit rate                 : 1 450 Kbps
Writing library                  : VirtualDub build 32706/release

Video
ID                               : 0
Format                           : MPEG-4 Visual
Format profile                   : Advanced Simple@L5
Format settings, BVOP            : 2
Format settings, QPel            : No
Format settings, GMC             : No warppoints
Format settings, Matrix          : Default (H.263)
Muxing mode                      : Packed bitstream
Codec ID                         : XVID
Codec ID/Hint                    : XviD
Duration                         : 1h 26mn
Bit rate                         : 992 Kbps
Width                            : 720 pixels
Height                           : 400 pixels
Display aspect ratio             : 16:9
Frame rate                       : 25.000 fps
Color space                      : YUV
Chroma subsampling               : 4:2:0
Bit depth                        : 8 bits
Scan type                        : Progressive
Compression mode                 : Lossy
Bits/(Pixel*Frame)               : 0.138
Stream size                      : 617 MiB (68%)
Writing library                  : XviD 64

Audio
ID                               : 1
Format                           : AC-3
Format/Info                      : Audio Coding 3
Mode extension                   : CM (complete main)
Codec ID                         : 2000
Duration                         : 1h 26mn
Bit rate mode                    : Constant
Bit rate                         : 448 Kbps
Channel(s)                       : 6 channels
Channel positions                : Front: L C R, Side: L R, LFE
Sampling rate                    : 48.0 KHz
Bit depth                        : 16 bits
Compression mode                 : Lossy
Stream size                      : 279 MiB (31%)
Alignment                        : Aligned on interleaves
Interleave, duration             : 40 ms (1.00 video frame)
Interleave, preload duration     : 512 ms

video: on the inside 2011 dvdr - 69.1ch thanks matey :lol:

audio  on the inside 2011 dvdr - 69.1ch thanks matey :lol:

notes after DIDyourMUM it only right i DIDyourSISTER to ha ha 

enjoy

p.s sample to look at no photo shop pics is not saying names cm8 oops 

was not saying names. doing it not right the 99 time :lol:

one thing rar is best and if you think not your a fool 10 times faster to dowwload if you use a box.

[IMG]http://i.imgur.com/CltDy.png[/IMG]